<svg xmlns:xlink="http://www.w3.org/1999/xlink" xmlns="http://www.w3.org/2000/svg" id="exportSvg" width="600" height="400"><defs/><g><g id="header-svg"><text transform="translate(0, -1.1111111640930176)" fill="rgb(51,51,51)" style="font-family: BentonSans; font-weight: 700; font-size: 19px;"><tspan x="0" dy="19">ShotSpotter's rate of effectiveness rose and fell</tspan></text><g id="text-svg"><text transform="translate(0, 31.111112594604492)" fill="rgb(51,51,51)" style="font-family: BentonSans; font-weight: 400; font-size: 15px;"><tspan x="0" dy="15">The rate of ShotSpotter calls resulting in a warning, citation or arrest of a suspect </tspan></text><text transform="translate(0, 51.111114501953125)" fill="rgb(51,51,51)" style="font-family: BentonSans; font-weight: 400; font-size: 15px;"><tspan x="0" dy="15">climbed gradually since 2013 but has fallen dramatically the last few years.</tspan></text></g><text transform="translate(0, 78.8888931274414)" fill="rgb(51,51,51)" style="font-family: BentonSans; font-weight: 400; font-size: 12px; letter-spacing: 0.2px;"><tspan x="0" dy="12">PERCENT OF SHOTS FIRED CALLS RESULTING IN INCIDENT REPORT</tspan></text></g><g id="chart-svg"><g id="group-svg"><g id="x-svg ticks-svg"><g id="tick-svg"><text transform="translate(66.84315490722656, 346.4427185058594)" fill="rgb(133, 133, 133)" style="font-family: BentonSans; font-weight: 400; font-size: 12px;"><tspan x="4.609374046325684" dy="12">2008</tspan></text></g><g id="tick-svg"><text transform="translate(151.673828125, 346.4427185058594)" fill="rgb(133, 133, 133)" style="font-family: BentonSans; font-weight: 400; font-size: 12px;"><tspan x="3.4843759536743164" dy="12">2010</tspan></text></g><g id="tick-svg"><text transform="translate(235.60877990722656, 346.4427185058594)" fill="rgb(133, 133, 133)" style="font-family: BentonSans; font-weight: 400; font-size: 12px;"><tspan x="3.140620231628418" dy="12">2012</tspan></text></g><g id="tick-svg"><text transform="translate(319.3925476074219, 346.4427185058594)" fill="rgb(133, 133, 133)" style="font-family: BentonSans; font-weight: 400; font-size: 12px;"><tspan x="3.0625038146972656" dy="12">2014</tspan></text></g><g id="tick-svg"><text transform="translate(402.8118591308594, 346.4427185058594)" fill="rgb(133, 133, 133)" style="font-family: BentonSans; font-weight: 400; font-size: 12px;"><tspan x="3.2343692779541016" dy="12">2016</tspan></text></g><g id="tick-svg"><text transform="translate(486.4862976074219, 346.4427185058594)" fill="rgb(133, 133, 133)" style="font-family: BentonSans; font-weight: 400; font-size: 12px;"><tspan x="3.2656497955322266" dy="12">2018</tspan></text></g><g id="tick-svg"><text transform="translate(568.9837036132812, 346.4427185058594)" fill="rgb(133, 133, 133)" style="font-family: BentonSans; font-weight: 400; font-size: 12px;"><tspan x="4.359382629394531" dy="12">2020</tspan></text></g></g><g id="x-svg axis-svg"><line x1="0" x2="563" y1="0" y2="0" transform="translate(0, 103.33333587646484) translate(32,34) translate(0,204)" style="stroke: rgb(51, 51, 51); stroke-width: 1;"/></g><g id="y-grid-svg"><g id="tick-svg tick-major-svg"><text transform="translate(5.125, 334.20831298828125)" fill="rgb(133, 133, 133)" style="font-family: BentonSans; font-weight: 400; font-size: 12px;"><tspan x="6.875" dy="12">0%</tspan></text></g><g id="tick-svg tick-major-svg"><line x1="0" x2="563" y1="0" y2="0" transform="translate(0, 103.33333587646484) translate(32,34) translate(0,163.2)" style="stroke: rgb(238, 238, 238); stroke-width: 1;"/><text transform="translate(0, 293.4083557128906)" fill="rgb(133, 133, 133)" style="font-family: BentonSans; font-weight: 400; font-size: 12px;"><tspan x="6.000001907348633" dy="12">10%</tspan></text></g><g id="tick-svg tick-major-svg"><line x1="0" x2="563" y1="0" y2="0" transform="translate(0, 103.33333587646484) translate(32,34) translate(0,122.39999999999999)" style="stroke: rgb(238, 238, 238); stroke-width: 1;"/><text transform="translate(-1.84375, 252.60833740234375)" fill="rgb(133, 133, 133)" style="font-family: BentonSans; font-weight: 400; font-size: 12px;"><tspan x="7.84375" dy="12">20%</tspan></text></g><g id="tick-svg tick-major-svg"><line x1="0" x2="563" y1="0" y2="0" transform="translate(0, 103.33333587646484) translate(32,34) translate(0,81.60000000000001)" style="stroke: rgb(238, 238, 238); stroke-width: 1;"/><text transform="translate(-2.0312499403953552, 211.808349609375)" fill="rgb(133, 133, 133)" style="font-family: BentonSans; font-weight: 400; font-size: 12px;"><tspan x="8.03125" dy="12">30%</tspan></text></g><g id="tick-svg tick-major-svg"><line x1="0" x2="563" y1="0" y2="0" transform="translate(0, 103.33333587646484) translate(32,34) translate(0,40.79999999999998)" style="stroke: rgb(238, 238, 238); stroke-width: 1;"/><text transform="translate(-2.2968749403953552, 171.0083465576172)" fill="rgb(133, 133, 133)" style="font-family: BentonSans; font-weight: 400; font-size: 12px;"><tspan x="8.296875" dy="12">40%</tspan></text></g><g id="tick-svg tick-major-svg"><line x1="0" x2="563" y1="0" y2="0" transform="translate(0, 103.33333587646484) translate(32,34) translate(0,0)" style="stroke: rgb(238, 238, 238); stroke-width: 1;"/><text transform="translate(-1.90625, 130.20834350585938)" fill="rgb(133, 133, 133)" style="font-family: BentonSans; font-weight: 400; font-size: 12px;"><tspan x="7.90625" dy="12">50%</tspan></text></g></g><g id="lines-svg"><path d="M9.656946827383303,107.304L51.45252998165751,86.08800000000001L93.36262158292973,99.14399999999999L135.15820473720393,99.55199999999999L176.95378789147816,91.8L218.74937104575235,96.696L260.65946264702455,103.63199999999999L302.45504580129875,86.90400000000001L344.250628955573,71.80799999999999L386.0462121098472,38.351999999999975L427.9563037111194,71.4L469.75188686539366,91.392L511.54747001966786,121.99199999999999L553.343053173942,108.93599999999999" stroke="rgb(107,178,244)" id="ShotSpotter" transform="translate(0, 103.33333587646484) translate(32,34)" style="stroke-width: 2; stroke-linejoin: round; stroke-linecap: round; fill: none; mix-blend-mode: normal;"/><path d="M9.656946827383303,103.63199999999999L51.45252998165751,82.41600000000001L93.36262158292973,70.584L135.15820473720393,88.94400000000002L176.95378789147816,91.8L218.74937104575235,91.8L260.65946264702455,86.08800000000001L302.45504580129875,86.08800000000001L344.250628955573,77.928L386.0462121098472,74.256L427.9563037111194,95.88L469.75188686539366,106.89599999999999L511.54747001966786,101.184L553.343053173942,87.31199999999998" stroke="rgb(0,89,147)" id="911_officer" transform="translate(0, 103.33333587646484) translate(32,34)" style="stroke-width: 2; stroke-linejoin: round; stroke-linecap: round; fill: none; mix-blend-mode: normal;"/></g><g id="line-symbols-svg"><path d="M -1,0 a 1,1 0 1,0 2,0 a 1,1 0 1,0 -2,0 Z" stroke="null" id="ShotSpotter" transform="translate(0, 103.33333587646484) translate(32,34) translate(553.343053173942,108.93599999999999) scale(3.5)" style="fill: rgb(107, 178, 244); mix-blend-mode: normal;"/><path d="M -1,0 a 1,1 0 1,0 2,0 a 1,1 0 1,0 -2,0 Z" stroke="null" id="911_officer" transform="translate(0, 103.33333587646484) translate(32,34) translate(553.343053173942,87.31199999999998) scale(3.5)" style="fill: rgb(0, 89, 147); mix-blend-mode: normal;"/></g></g><g id="d3l-key-svg legend-key-svg" clip-path="url(#rect-mask-d3l-key-legend-key-0)"><clipPath id="rect-mask-d3l-key-legend-key-0"><rect x="0" y="102.88195037841797" width="15.989583969116211" height="20"/></clipPath><path d="M1,10 L15,10" stroke="rgb(0,89,147)" id="911_officer" transform="translate(0, 102.88195037841797)" style="stroke-width: 2; stroke-linejoin: round; stroke-linecap: round; fill: none; mix-blend-mode: normal;"/></g><text transform="translate(19.98263931274414, 106.19792175292969)" fill="rgb(51,51,51)" id="911_officer" style="font-family: BentonSans; font-weight: 400; font-size: 12px;"><tspan x="0" dy="12">911 gunfire call</tspan></text><g id="d3l-key-svg legend-key-svg" clip-path="url(#rect-mask-d3l-key-legend-key-1)"><clipPath id="rect-mask-d3l-key-legend-key-1"><rect x="109.56597900390625" y="102.88195037841797" width="15.989583969116211" height="20"/></clipPath><path d="M1,10 L15,10" stroke="rgb(107,178,244)" id="ShotSpotter" transform="translate(109.56597900390625, 102.88195037841797)" style="stroke-width: 2; stroke-linejoin: round; stroke-linecap: round; fill: none; mix-blend-mode: normal;"/></g><text transform="translate(129.54861450195312, 106.19792175292969)" fill="rgb(51,51,51)" id="ShotSpotter" style="font-family: BentonSans; font-weight: 400; font-size: 12px;"><tspan x="0" dy="12">ShotSpotter</tspan></text></g><g id="above-footer-svg"/><g id="footer-svg"><g id="footer-inner-svg"><g id="footer-main-svg"><g id="text-svg"><text transform="translate(0, 382.6562805175781)" fill="rgb(136,136,136)" style="font-family: BentonSans; font-weight: 400; font-size: 11px;"><tspan x="0" dy="11">Chart:</tspan></text><text transform="translate(34.114585876464844, 382.6562805175781)" fill="rgb(136,136,136)" style="font-family: BentonSans; font-weight: 400; font-size: 11px;"><tspan x="0" dy="11">Jeff Hargarten, Star Tribune</tspan></text></g><text transform="translate(181.71876525878906, 382.6562805175781)" fill="rgb(136,136,136)" style="font-family: BentonSans; font-weight: 400; font-size: 11px;"><tspan x="0" dy="11">•</tspan></text><g id="text-svg"><text transform="translate(189.40972900390625, 382.6562805175781)" fill="rgb(136,136,136)" style="font-family: BentonSans; font-weight: 400; font-size: 11px;"><tspan x="0" dy="11">Source:</tspan></text><text transform="translate(230.95486450195312, 382.6562805175781)" fill="rgb(136,136,136)" style="font-family: BentonSans; font-weight: 400; font-size: 11px;"><tspan x="0" dy="11">Minneapolis Police Department</tspan></text></g></g></g></g><g id="below-footer-svg"/><g id="afterBody-svg"/></g></svg>